HIERARCHY
ROOT hip
{
  OFFSET 0 0 0
  CHANNELS 6 Xposition Yposition Zposition Zrotation Yrotation Xrotation
  JOINT abdomen
  {
    OFFSET 0 20.6881 -0.73152
    CHANNELS 3 Zrotation Xrotation Yrotation
    JOINT chest
    {
      OFFSET 0 11.7043 -0.48768
      CHANNELS 3 Zrotation Xrotation Yrotation
      JOINT neck
      {
        OFFSET 0 22.1894 -2.19456
        CHANNELS 3 Zrotation Xrotation Yrotation
        JOINT head
        {
          OFFSET -0.24384 7.07133 1.2192
          CHANNELS 3 Zrotation Xrotation Yrotation
          JOINT leftEye
          {
            OFFSET 4.14528 8.04674 8.04672
            CHANNELS 3 Zrotation Xrotation Yrotation
            End Site
            {
              OFFSET 1 0 0
            }
          }
          JOINT rightEye
          {
            OFFSET -3.6576 8.04674 8.04672
            CHANNELS 3 Zrotation Xrotation Yrotation
            End Site
            {
              OFFSET 1 0 0
            }
          }
        }
      }
      JOINT rCollar
      {
        OFFSET -2.68224 19.2634 -4.8768
        CHANNELS 3 Zrotation Xrotation Yrotation
        JOINT rShldr
        {
          OFFSET -8.77824 -1.95073 1.46304
          CHANNELS 3 Zrotation Xrotation Yrotation
          JOINT rForeArm
          {
            OFFSET -28.1742 -1.7115 0.48768
            CHANNELS 3 Zrotation Xrotation Yrotation
            JOINT rHand
            {
              OFFSET -22.5879 0.773209 7.07136
              CHANNELS 3 Zrotation Xrotation Yrotation
              JOINT rThumb1
              {
                OFFSET -1.2192 -0.487915 3.41376
                CHANNELS 3 Zrotation Xrotation Yrotation
                JOINT rThumb2
                {
                  OFFSET -3.37035 -0.52449 3.41376
                  CHANNELS 3 Zrotation Xrotation Yrotation
                  End Site
                  {
                    OFFSET -1.78271 -1.18214 1.43049
                  }
                }
              }
              JOINT rIndex1
              {
                OFFSET -7.75947 0.938293 5.60832
                CHANNELS 3 Zrotation Xrotation Yrotation
                JOINT rIndex2
                {
                  OFFSET -2.54057 -0.884171 1.56538
                  CHANNELS 3 Zrotation Xrotation Yrotation
                  End Site
                  {
                    OFFSET -1.62519 -0.234802 1.16502
                  }
                }
              }
              JOINT rMid1
              {
                OFFSET -8.24714 1.18213 3.41376
                CHANNELS 3 Zrotation Xrotation Yrotation
                JOINT rMid2
                {
                  OFFSET -3.10165 -0.590103 1.0647
                  CHANNELS 3 Zrotation Xrotation Yrotation
                  End Site
                  {
                    OFFSET -2.48547 -0.328903 0.83742
                  }
                }
              }
              JOINT rRing1
              {
                OFFSET -8.82822 0.546677 1.51678
                CHANNELS 3 Zrotation Xrotation Yrotation
                JOINT rRing2
                {
                  OFFSET -2.60934 -0.819778 -0.0198488
                  CHANNELS 3 Zrotation Xrotation Yrotation
                  End Site
                  {
                    OFFSET -2.33842 -0.294052 0.168128
                  }
                }
              }
              JOINT rPinky1
              {
                OFFSET -8.27202 -0.0477905 -0.4584
                CHANNELS 3 Zrotation Xrotation Yrotation
                JOINT rPinky2
                {
                  OFFSET -1.82734 -0.647385 -0.700984
                  CHANNELS 3 Zrotation Xrotation Yrotation
                  End Site
                  {
                    OFFSET -1.69225 -0.51767 -0.607171
                  }
                }
              }
            }
          }
        }
      }
      JOINT lCollar
      {
        OFFSET 2.68224 19.2634 -4.8768
        CHANNELS 3 Zrotation Xrotation Yrotation
        JOINT lShldr
        {
          OFFSET 8.77824 -1.95073 1.46304
          CHANNELS 3 Zrotation Xrotation Yrotation
          JOINT lForeArm
          {
            OFFSET 28.1742 -1.7115 0.48768
            CHANNELS 3 Zrotation Xrotation Yrotation
            JOINT lHand
            {
              OFFSET 22.5879 0.773209 7.07136
              CHANNELS 3 Zrotation Xrotation Yrotation
              JOINT lThumb1
              {
                OFFSET 1.2192 -0.487915 3.41376
                CHANNELS 3 Zrotation Xrotation Yrotation
                JOINT lThumb2
                {
                  OFFSET 3.37035 -0.52449 3.41376
                  CHANNELS 3 Zrotation Xrotation Yrotation
                  End Site
                  {
                    OFFSET 1.78271 -1.18214 1.43049
                  }
                }
              }
              JOINT lIndex1
              {
                OFFSET 7.75947 0.938293 5.60832
                CHANNELS 3 Zrotation Xrotation Yrotation
                JOINT lIndex2
                {
                  OFFSET 2.54057 -0.884171 1.56538
                  CHANNELS 3 Zrotation Xrotation Yrotation
                  End Site
                  {
                    OFFSET 1.62519 -0.234802 1.16502
                  }
                }
              }
              JOINT lMid1
              {
                OFFSET 8.24714 1.18213 3.41376
                CHANNELS 3 Zrotation Xrotation Yrotation
                JOINT lMid2
                {
                  OFFSET 3.10165 -0.590103 1.0647
                  CHANNELS 3 Zrotation Xrotation Yrotation
                  End Site
                  {
                    OFFSET 2.48547 -0.328903 0.83742
                  }
                }
              }
              JOINT lRing1
              {
                OFFSET 8.82822 0.546677 1.51678
                CHANNELS 3 Zrotation Xrotation Yrotation
                JOINT lRing2
                {
                  OFFSET 2.60934 -0.819778 -0.0198488
                  CHANNELS 3 Zrotation Xrotation Yrotation
                  End Site
                  {
                    OFFSET 2.33842 -0.294052 0.168128
                  }
                }
              }
              JOINT lPinky1
              {
                OFFSET 8.27202 -0.0477905 -0.4584
                CHANNELS 3 Zrotation Xrotation Yrotation
                JOINT lPinky2
                {
                  OFFSET 1.82734 -0.647385 -0.700984
                  CHANNELS 3 Zrotation Xrotation Yrotation
                  End Site
                  {
                    OFFSET 1.69225 -0.51767 -0.607171
                  }
                }
              }
            }
          }
        }
      }
    }
  }
  JOINT rButtock
  {
    OFFSET -8.77824 4.35084 1.2192
    CHANNELS 3 Zrotation Xrotation Yrotation
    JOINT rThigh
    {
      OFFSET 0 -1.70687 -2.19456
      CHANNELS 3 Zrotation Xrotation Yrotation
      JOINT rShin
      {
        OFFSET 0 -36.8199 0.73152
        CHANNELS 3 Zrotation Xrotation Yrotation
        JOINT rFoot
        {
          OFFSET 0.73152 -45.1104 -5.12064
          CHANNELS 3 Zrotation Xrotation Yrotation
          End Site
          {
            OFFSET -1.1221 -3.69964 12.103
          }
        }
      }
    }
  }
  JOINT lButtock
  {
    OFFSET 8.77824 4.35084 1.2192
    CHANNELS 3 Zrotation Xrotation Yrotation
    JOINT lThigh
    {
      OFFSET 0 -1.70687 -2.19456
      CHANNELS 3 Zrotation Xrotation Yrotation
      JOINT lShin
      {
        OFFSET 0 -36.8199 0.73152
        CHANNELS 3 Zrotation Xrotation Yrotation
        JOINT lFoot
        {
          OFFSET -0.73152 -45.1104 -5.12064
          CHANNELS 3 Zrotation Xrotation Yrotation
          End Site
          {
            OFFSET 1.1221 -3.69964 12.103
          }
        }
      }
    }
  }
}
MOTION
Frames:	4
Frame Time:	0.00833333
0.0 0.0 0.0 0.0 0.0 0.0 0.0 0.0 0.0 0.0 0.0 0.0 0.0 0.0 0.0 0.0 0.0 0.0 0.0 0.0 0.0 0.0 0.0 0.0 0.0 0.0 0.0 0.0 0.0 0.0 0.0 0.0 0.0 0.0 0.0 0.0 0.0 0.0 0.0 0.0 0.0 0.0 0.0 0.0 0.0 0.0 0.0 0.0 0.0 0.0 0.0 0.0 0.0 0.0 0.0 0.0 0.0 0.0 0.0 0.0 0.0 0.0 0.0 0.0 0.0 0.0 0.0 0.0 0.0 0.0 0.0 0.0 0.0 0.0 0.0 0.0 0.0 0.0 0.0 0.0 0.0 0.0 0.0 0.0 0.0 0.0 0.0 0.0 0.0 0.0 0.0 0.0 0.0 0.0 0.0 0.0 0.0 0.0 0.0 0.0 0.0 0.0 0.0 0.0 0.0 0.0 0.0 0.0 0.0 0.0 0.0 0.0 0.0 0.0 0.0 0.0 0.0 0.0 0.0 0.0 0.0 0.0 0.0 0.0 0.0 0.0 0.0 0.0 0.0 0.0 0.0 0.0
-2.3042 51.696299999999994 -156.362 -14.411579 -25.490708 11.51468 1.828391 1.016918 0.043736 0.510591 -1.591277 0.623692 10.753295 13.188625 104.269433 -11.142359 13.27417 -107.52531 -0.002764 0.0 -0.000293 -0.002764 0.0 -0.000293 0.162922 -0.990101 -0.218167 20.940224 34.730263 -8.811615 45.90582 -72.836381 74.47303 -16.595026 34.358161 3.389569 -78.030884 38.689643 42.412371 -85.453117 -3.122906 65.855501 -179.423273 -58.426373 117.04148 -151.986896 -4.346524 117.914859 -149.312808 22.338435 135.905506 2.971031 1.037608 0.472098 -70.37835 -72.130353 -87.279878 14.72867 0.86094 -4.412798 -7.144403 -15.707347 -6.728096 -4.804756 -17.662571 -6.787593 -2.185441 -15.733585 3.20257 -16.586077 0.835634 -6.044202 88.489282 63.377721 -74.351449 -31.524618 -53.462389 -21.083674 161.773405 0.529412 -89.18129 -18.605064 -56.307377 -21.392687 50.387225 40.824937 -40.025761 -149.865887 -56.101417 -91.470605 -2.098565 -6.305626 1.082121 88.708601 64.081066 -80.41824 145.119292 0.267577 179.212814 -11.657527 22.920257 6.370235 145.174544 12.068056 141.821618 148.369451 14.09285 142.236591 0.0 0.000949 -0.001932 -4.320706 1.417992 94.979878 20.603813 -3.516506 97.511178 6.218692 14.585731 159.299689 -179.992209 75.749534 -0.00641 -173.137684 47.110285 111.400751 27.888278 -8.309923 -118.804943 -97.421708 -37.090821 8.41174
-2.297 51.6931 -156.365 -14.384169 -25.469369 11.523185 3.203741 -0.262767 89.310309 -0.847913 -3.996495 -87.933579 -4.528789 6.031582 -9.843545 6.730614 -6.778013 3.098022 0.001542 -0.0 -0.003013 0.000795 -0.0 -0.001324 -82.877195 68.299919 86.000704 -130.285303 3.185928 147.937955 145.359096 -85.739918 37.650204 -176.328662 -3.12929 142.764757 -85.829945 38.630361 47.955017 -22.170037 -7.320829 33.279741 -0.327049 0.529992 0.186557 2.316024 12.493595 2.294157 -154.523091 10.688896 139.684391 -88.606525 63.705248 80.388001 -0.000427 0.063698 0.020559 -61.436797 -86.805195 -82.98369 -145.49949 13.103447 -142.11151 -147.403909 11.196793 -141.576269 -0.118411 -0.713996 0.158162 -38.594669 -11.441511 -16.163373 -170.876366 -16.913674 -120.484131 -164.213838 -20.284541 -144.67846 5.433584 5.265082 -1.07706 -12.421114 -15.043903 5.51623 8.569992 12.509373 -5.449993 177.593135 -32.457222 -107.085382 145.28809 29.524332 -132.692263 36.943095 56.086272 -31.561668 -0.005613 1.771362 -0.556623 -7.30345 26.539497 -4.02211 16.665921 -29.65848 15.919996 138.113486 -11.785218 136.196901 179.994686 75.749643 0.005483 144.253054 81.483937 -0.0 -5.955057 18.010132 92.730177 -135.686596 51.409728 55.446097 0.002925 -0.000866 0.001462 26.060922 -44.311401 19.238629 -27.03647 53.599141 -88.472172 -82.747943 76.723565 162.556861
-2.2929999999999997 51.69049999999999 -156.366 -14.374322 -25.458354 11.534724 6.533826 0.612356 91.412574 -2.397852 -4.939081 -89.430618 -12.34517 18.942234 -83.392347 23.062325 10.639732 72.108277 -0.000514 0.0 -0.000755 -0.000514 0.0 -0.000755 4.208481 -43.443077 -8.384773 116.973446 49.898813 -101.18 -167.955943 42.086526 43.079242 -169.091283 4.653011 141.280858 -166.506368 -4.181141 89.761755 -0.886012 -50.873706 10.857726 -1.160638 1.861108 0.669743 -86.575712 47.213744 67.666853 0.541499 -1.589977 -0.293831 5.159831 -5.864111 -0.705037 -0.022212 -1.726041 -0.542496 -128.196381 -84.382195 -150.403482 -143.937913 8.264814 -140.720599 -21.295301 -36.818747 -22.942257 152.128715 14.112925 -157.556028 33.690088 13.898246 -0.630306 -77.397663 38.846748 90.135062 179.092989 36.038688 -151.928999 -6.464377 -6.452377 0.635031 160.603191 -75.573147 -121.964197 153.474206 -21.111904 -121.752191 -46.296014 -54.967799 -0.474127 -89.035949 -81.392055 -59.75947 176.830271 -42.206885 -142.639147 71.926082 72.975907 -89.770839 -4.239344 37.653595 -0.991103 -7.927676 24.81181 -7.001793 24.724667 -41.235549 24.98089 -0.030757 0.000201 -0.023068 -7.857204 11.811594 0.0 3.189584 36.565853 170.183876 2.504419 30.27756 161.068451 0.005147 0.001034 0.002573 58.744444 -52.408056 -0.0 -71.779096 37.053106 160.574394 -15.929028 -70.9855 -113.894228
